<svg width="25" height="25" viewBox="0 0 25 25" fill="none" xmlns="http://www.w3.org/2000/svg">
<g clip-path="url(#clip0_7_31)">
<path d="M12.5 25C19.3924 25 25 19.3924 25 12.5C25 5.60757 19.3924 0 12.5 0C5.60757 0 0.000132102 5.60744 0.000132102 12.5C0.000132102 19.3926 5.60744 25 12.5 25ZM24.4341 13.5946C23.8793 19.6913 18.7387 24.4836 12.5 24.4836C6.2613 24.4836 1.12079 19.6913 0.566079 13.5946H8.67341C9.15002 15.2586 10.6851 16.4798 12.5001 16.4798C14.3152 16.4798 15.8502 15.2586 16.327 13.5946H24.4341ZM15.8823 11.7525C15.9354 11.9933 15.9635 12.2434 15.9635 12.5C15.9635 14.4097 14.4098 15.9635 12.5 15.9635C10.5903 15.9635 9.03668 14.4097 9.03668 12.5C9.03668 10.5903 10.5903 9.03655 12.5 9.03655C14.131 9.03655 15.5022 10.1697 15.8679 11.6902C15.87 11.7119 15.8749 11.7328 15.8823 11.7525ZM8.56213 13.0782H0.530191C0.521154 12.8865 0.516506 12.6939 0.516506 12.5C0.516506 12.3061 0.521154 12.1135 0.530191 11.9218H8.56213C8.53451 12.1105 8.52031 12.3036 8.52031 12.5C8.52031 12.6964 8.53451 12.8893 8.56213 13.0782ZM24.4698 13.0782H16.4379C16.4655 12.8893 16.4798 12.6964 16.4798 12.5C16.4798 12.3036 16.4656 12.1105 16.438 11.9218H24.4698C24.479 12.1135 24.4836 12.306 24.4836 12.5C24.4836 12.694 24.479 12.8865 24.4698 13.0782ZM8.67328 11.4054H0.565949C1.12066 5.30871 6.2613 0.516374 12.5 0.516374C18.7387 0.516374 23.8793 5.30871 24.4341 11.4054H23.5265C23.2621 8.71097 22.0235 6.21792 20.0262 4.3684C17.9728 2.46711 15.2999 1.42003 12.5 1.42003C12.3575 1.42003 12.2418 1.5357 12.2418 1.67822C12.2418 1.82074 12.3575 1.9364 12.5 1.9364C17.8848 1.9364 22.4574 6.07785 23.0076 11.4054H16.3269C15.8501 9.7414 14.3149 8.52017 12.5 8.52017C10.6851 8.52017 9.14977 9.7414 8.67328 11.4054ZM12.5 14.5161C13.6116 14.5161 14.5161 13.6116 14.5161 12.5C14.5161 11.3884 13.6116 10.4839 12.5 10.4839C11.3884 10.4839 10.4839 11.3884 10.4839 12.5C10.4838 13.6116 11.3882 14.5161 12.5 14.5161ZM12.5 11.0003C13.3268 11.0003 13.9997 11.673 13.9997 12.5C13.9997 13.327 13.3268 13.9997 12.5 13.9997C11.6732 13.9997 11.0003 13.327 11.0003 12.5C11.0002 11.673 11.673 11.0003 12.5 11.0003Z" fill="black"/>
</g>
<defs>
<clipPath id="clip0_7_31">
<rect width="25" height="25" fill="white" transform="matrix(-1 0 0 1 25 0)"/>
</clipPath>
</defs>
</svg>
