<svg width="134" height="204" viewBox="0 0 134 204" fill="none" xmlns="http://www.w3.org/2000/svg">
<path fill-rule="evenodd" clip-rule="evenodd" d="M133.209 138.065C133.209 174.475 103.582 203.991 67.0343 203.991C30.4868 203.991 0.859375 174.475 0.859375 138.065C0.859375 102.653 63.4547 5.39799 66.8877 0.0907681C66.9662 -0.0302567 67.1028 -0.0302557 67.1809 0.0907693C70.6139 5.39799 133.209 102.653 133.209 138.065ZM56.0031 182.855C22.4228 175.508 28.1691 138.31 28.1691 138.31C28.1691 138.31 37.3387 160.765 59.5911 168.039C81.843 175.312 108.734 164.644 108.734 164.644C108.734 164.644 89.5835 190.203 56.0031 182.855Z" fill="url(#paint0_linear_1403_15571)"/>
<defs>
<linearGradient id="paint0_linear_1403_15571" x1="1" y1="-0.00268545" x2="133" y2="203.997" gradientUnits="userSpaceOnUse">
<stop stop-color="white"/>
<stop offset="1" stop-color="white" stop-opacity="0"/>
</linearGradient>
</defs>
</svg>
